<svg id="logo" xmlns="http://www.w3.org/2000/svg" width="150.986" height="56" viewBox="0 0 150.986 56">
  <g id="Grupo_599" data-name="Grupo 599">
    <g id="LOGO_Convertido_" data-name="LOGO [Convertido]" transform="translate(0 0)">
      <path id="Caminho_1" data-name="Caminho 1" d="M35.163,17.713A17.582,17.582,0,1,1,17.624,0,17.637,17.637,0,0,1,35.163,17.713Z" fill="#fff" fill-rule="evenodd"/>
      <g id="Elipse_1" data-name="Elipse 1" transform="translate(4.216 4.3)" fill="#f7d622" stroke="#000" stroke-width="3">
        <ellipse cx="13.407" cy="13.497" rx="13.407" ry="13.497" stroke="none"/>
        <ellipse cx="13.407" cy="13.497" rx="14.907" ry="14.997" fill="none"/>
      </g>
      <path id="Caminho_2" data-name="Caminho 2" d="M21.97,10.6H13.2a5.026,5.026,0,0,1,1.433,3.626A5.4,5.4,0,0,1,13.2,17.852h8.77A3.653,3.653,0,0,0,25.6,14.226,3.6,3.6,0,0,0,21.97,10.6Z" transform="translate(-2.069 -1.658)" fill-rule="evenodd"/>
      <path id="Caminho_3" data-name="Caminho 3" d="M23.487,22.8H13.2a5.026,5.026,0,0,1,1.433,3.626A5.4,5.4,0,0,1,13.2,30.052H23.487a3.626,3.626,0,0,0,0-7.252Z" transform="translate(-2.069 -3.567)" fill-rule="evenodd"/>
      <path id="Caminho_4" data-name="Caminho 4" d="M68.548,9.869A12.737,12.737,0,1,1,55.9,22.606V0h0a4.644,4.644,0,0,1,4.638,4.724v8.013A12.726,12.726,0,0,1,68.548,9.869Zm0,4.724a8.013,8.013,0,1,0,8.011,8.013A8.063,8.063,0,0,0,68.548,14.593Z" transform="translate(-8.746)" fill="#fff" fill-rule="evenodd"/>
      <path id="Caminho_5" data-name="Caminho 5" d="M118.548,11.7A12.7,12.7,0,0,1,131.2,24.433a10.666,10.666,0,0,1-.253,2.361H110.875a8,8,0,0,0,7.673,5.65,8.1,8.1,0,0,0,6.071-2.783H130.1A12.677,12.677,0,1,1,118.548,11.7Zm7.589,10.456a7.979,7.979,0,0,0-15.263,0Z" transform="translate(-16.568 -1.823)" fill="#fff" fill-rule="evenodd"/>
      <path id="Caminho_6" data-name="Caminho 6" d="M151.848,9.869A12.737,12.737,0,1,0,164.5,22.606V0h0a4.644,4.644,0,0,0-4.638,4.724v8.013A12.726,12.726,0,0,0,151.848,9.869Zm0,4.724a8.013,8.013,0,1,1-8.011,8.013A8.063,8.063,0,0,1,151.848,14.593Z" transform="translate(-21.775)" fill="#fff" fill-rule="evenodd"/>
      <path id="Caminho_7" data-name="Caminho 7" d="M89.2,24.533A12.65,12.65,0,0,1,101.848,11.8v4.722a8.062,8.062,0,0,0-8.011,8.011v8.011A4.7,4.7,0,0,1,89.2,37.266h0Z" transform="translate(-13.958 -1.839)" fill="#fff" fill-rule="evenodd"/>
      <path id="Caminho_8" data-name="Caminho 8" d="M173.4,12.3h4.722V32.706a4.714,4.714,0,0,1-4.722,4.722h0Z" transform="translate(-27.136 -1.917)" fill="#fff" fill-rule="evenodd"/>
      <path id="Caminho_9" data-name="Caminho 9" d="M175.761,0a2.413,2.413,0,0,1,2.361,2.361,2.361,2.361,0,1,1-4.722,0A2.413,2.413,0,0,1,175.761,0Z" transform="translate(-27.136)" fill="#fff" fill-rule="evenodd"/>
    </g>
    <path id="Caminho_871" data-name="Caminho 871" d="M-72.253-.03A4.574,4.574,0,0,1-74.5-.58a4.049,4.049,0,0,1-1.568-1.515,4.2,4.2,0,0,1-.568-2.172,4.2,4.2,0,0,1,.568-2.172A4.038,4.038,0,0,1-74.49-7.954a4.608,4.608,0,0,1,2.249-.55,4.694,4.694,0,0,1,1.775.325,3.634,3.634,0,0,1,1.373.965l-.769.746a3.087,3.087,0,0,0-2.332-.982,3.377,3.377,0,0,0-1.669.414,3,3,0,0,0-1.166,1.142,3.2,3.2,0,0,0-.42,1.627,3.2,3.2,0,0,0,.42,1.627A3,3,0,0,0-73.862-1.5a3.377,3.377,0,0,0,1.669.414,3.093,3.093,0,0,0,2.332-.994l.769.746a3.682,3.682,0,0,1-1.379.971A4.664,4.664,0,0,1-72.253-.03Zm5.776-5.314a1.939,1.939,0,0,1,.876-.829,3.179,3.179,0,0,1,1.408-.284v1.1a2.218,2.218,0,0,0-.26-.012,1.912,1.912,0,0,0-1.45.55,2.179,2.179,0,0,0-.527,1.568V-.124h-1.136V-6.4h1.089ZM-62.8-6.4h1.136V-.124H-62.8Zm.568-1.207a.757.757,0,0,1-.55-.213A.7.7,0,0,1-63-8.338a.718.718,0,0,1,.219-.527.746.746,0,0,1,.55-.219.769.769,0,0,1,.55.207.68.68,0,0,1,.219.515.732.732,0,0,1-.219.539A.746.746,0,0,1-62.228-7.6ZM-53.576-6.4V-.124h-1.089v-.994a2.46,2.46,0,0,1-.959.793A2.971,2.971,0,0,1-56.9-.053a3.3,3.3,0,0,1-1.633-.4,2.883,2.883,0,0,1-1.13-1.13,3.365,3.365,0,0,1-.408-1.675,3.332,3.332,0,0,1,.408-1.669,2.894,2.894,0,0,1,1.13-1.124,3.3,3.3,0,0,1,1.633-.4,3.005,3.005,0,0,1,1.243.254,2.413,2.413,0,0,1,.947.752V-6.4Zm-3.231,5.35a2.127,2.127,0,0,0,1.077-.278,1.951,1.951,0,0,0,.757-.781A2.386,2.386,0,0,0-54.7-3.261a2.386,2.386,0,0,0-.272-1.154,1.912,1.912,0,0,0-.757-.775,2.163,2.163,0,0,0-1.077-.272,2.154,2.154,0,0,0-1.083.272,1.962,1.962,0,0,0-.757.775,2.345,2.345,0,0,0-.278,1.154,2.345,2.345,0,0,0,.278,1.154,2,2,0,0,0,.757.781A2.118,2.118,0,0,0-56.807-1.047Zm8.119.994A3.484,3.484,0,0,1-50.4-.468,3.035,3.035,0,0,1-51.576-1.61,3.207,3.207,0,0,1-52-3.261a3.207,3.207,0,0,1,.426-1.651A2.993,2.993,0,0,1-50.4-6.048a3.524,3.524,0,0,1,1.71-.408,3.283,3.283,0,0,1,1.521.343,2.445,2.445,0,0,1,1.036.994L-47-4.563a1.93,1.93,0,0,0-.734-.675,2.093,2.093,0,0,0-.971-.225,2.244,2.244,0,0,0-1.107.272,1.94,1.94,0,0,0-.769.775,2.345,2.345,0,0,0-.278,1.154,2.37,2.37,0,0,0,.278,1.166,1.94,1.94,0,0,0,.769.775,2.244,2.244,0,0,0,1.107.272,2.093,2.093,0,0,0,.971-.225A1.93,1.93,0,0,0-47-1.947l.864.544a2.482,2.482,0,0,1-1.036,1A3.237,3.237,0,0,1-48.688-.053Zm-.556,2.58a2.025,2.025,0,0,1-1.053-.26l.249-.58a1.6,1.6,0,0,0,.8.2q.663,0,.663-.473a.4.4,0,0,0-.166-.337.848.848,0,0,0-.509-.124h-.32l.3-1.16h.651l-.178.675a1.2,1.2,0,0,1,.763.314.907.907,0,0,1,.266.669.92.92,0,0,1-.4.787A1.783,1.783,0,0,1-49.244,2.527ZM-38.84-6.4V-.124h-1.089v-.994a2.46,2.46,0,0,1-.959.793,2.971,2.971,0,0,1-1.278.272,3.3,3.3,0,0,1-1.633-.4,2.884,2.884,0,0,1-1.13-1.13,3.365,3.365,0,0,1-.408-1.675A3.332,3.332,0,0,1-44.93-4.93,2.894,2.894,0,0,1-43.8-6.054a3.3,3.3,0,0,1,1.633-.4,3.005,3.005,0,0,1,1.243.254,2.413,2.413,0,0,1,.947.752V-6.4Zm-3.231,5.35a2.127,2.127,0,0,0,1.077-.278,1.951,1.951,0,0,0,.757-.781,2.386,2.386,0,0,0,.272-1.154,2.386,2.386,0,0,0-.272-1.154,1.912,1.912,0,0,0-.757-.775,2.163,2.163,0,0,0-1.077-.272,2.154,2.154,0,0,0-1.083.272,1.962,1.962,0,0,0-.757.775,2.345,2.345,0,0,0-.278,1.154,2.345,2.345,0,0,0,.278,1.154,2,2,0,0,0,.757.781A2.118,2.118,0,0,0-42.071-1.047Zm1.03-6.3a.974.974,0,0,1-.491-.118,4.786,4.786,0,0,1-.515-.355,1.879,1.879,0,0,0-.308-.243.508.508,0,0,0-.26-.077.533.533,0,0,0-.426.2.854.854,0,0,0-.178.539h-.639a1.738,1.738,0,0,1,.337-1.053,1,1,0,0,1,.823-.391,1,1,0,0,1,.5.124,3.565,3.565,0,0,1,.5.361,3.822,3.822,0,0,0,.32.243.449.449,0,0,0,.249.077.54.54,0,0,0,.426-.189.81.81,0,0,0,.178-.521h.639a1.673,1.673,0,0,1-.337,1.024A1.01,1.01,0,0,1-41.042-7.344ZM-34-.053A3.4,3.4,0,0,1-35.68-.468,3,3,0,0,1-36.846-1.61a3.242,3.242,0,0,1-.42-1.651,3.242,3.242,0,0,1,.42-1.651A2.963,2.963,0,0,1-35.68-6.048,3.441,3.441,0,0,1-34-6.456a3.407,3.407,0,0,1,1.675.408,2.973,2.973,0,0,1,1.16,1.136,3.242,3.242,0,0,1,.42,1.651,3.242,3.242,0,0,1-.42,1.651,3.015,3.015,0,0,1-1.16,1.142A3.368,3.368,0,0,1-34-.053Zm0-.994a2.118,2.118,0,0,0,1.083-.278,1.963,1.963,0,0,0,.752-.781,2.386,2.386,0,0,0,.272-1.154,2.386,2.386,0,0,0-.272-1.154,1.923,1.923,0,0,0-.752-.775A2.154,2.154,0,0,0-34-5.462a2.154,2.154,0,0,0-1.083.272,1.963,1.963,0,0,0-.757.775,2.345,2.345,0,0,0-.278,1.154,2.345,2.345,0,0,0,.278,1.154,2,2,0,0,0,.757.781A2.118,2.118,0,0,0-34-1.047ZM-16.423-6.4v3.468A3.034,3.034,0,0,1-17.11-.8,2.568,2.568,0,0,1-19.1-.053a2.192,2.192,0,0,1-2.13-1.124,2.008,2.008,0,0,1-.834.846,2.778,2.778,0,0,1-1.308.278A2.565,2.565,0,0,1-25.365-.8a3.051,3.051,0,0,1-.681-2.13V-6.4h1.136v3.361a2.442,2.442,0,0,0,.367,1.485,1.382,1.382,0,0,0,1.172.479,1.425,1.425,0,0,0,1.19-.485A2.361,2.361,0,0,0-21.8-3.036V-6.4h1.136v3.361a2.361,2.361,0,0,0,.385,1.479,1.425,1.425,0,0,0,1.19.485,1.368,1.368,0,0,0,1.16-.479,2.442,2.442,0,0,0,.367-1.485V-6.4Zm4.924,5.35A2.327,2.327,0,0,0-9.689-1.8l.615.734a2.649,2.649,0,0,1-1.047.757,3.687,3.687,0,0,1-1.414.26A3.7,3.7,0,0,1-13.3-.462,2.912,2.912,0,0,1-14.488-1.6a3.275,3.275,0,0,1-.42-1.657A3.325,3.325,0,0,1-14.5-4.906a2.925,2.925,0,0,1,1.124-1.142,3.2,3.2,0,0,1,1.616-.408,3.16,3.16,0,0,1,1.55.385A2.9,2.9,0,0,1-9.1-4.989a3.178,3.178,0,0,1,.426,1.61l-4.983.971a1.935,1.935,0,0,0,.8,1.006A2.486,2.486,0,0,0-11.5-1.047Zm-.26-4.45a2.066,2.066,0,0,0-1.059.272,1.886,1.886,0,0,0-.728.763,2.4,2.4,0,0,0-.26,1.142V-3.2L-9.8-3.959a1.919,1.919,0,0,0-.686-1.113A1.983,1.983,0,0,0-11.76-5.5Zm8-.959a3.3,3.3,0,0,1,1.633.4A2.894,2.894,0,0,1-1-4.93,3.332,3.332,0,0,1-.587-3.261,3.365,3.365,0,0,1-1-1.586a2.883,2.883,0,0,1-1.13,1.13,3.3,3.3,0,0,1-1.633.4A2.971,2.971,0,0,1-5.037-.325,2.46,2.46,0,0,1-6-1.118v.994H-7.085V-8.906h1.136V-5.45A2.413,2.413,0,0,1-5-6.2,3.005,3.005,0,0,1-3.759-6.456Zm-.095,5.409a2.118,2.118,0,0,0,1.083-.278,2,2,0,0,0,.757-.781,2.345,2.345,0,0,0,.278-1.154,2.345,2.345,0,0,0-.278-1.154,1.962,1.962,0,0,0-.757-.775,2.154,2.154,0,0,0-1.083-.272,2.163,2.163,0,0,0-1.077.272,1.912,1.912,0,0,0-.757.775A2.386,2.386,0,0,0-5.96-3.261a2.386,2.386,0,0,0,.272,1.154,1.951,1.951,0,0,0,.757.781A2.127,2.127,0,0,0-3.854-1.047ZM5.97-.053A5.257,5.257,0,0,1,4.491-.26,3.249,3.249,0,0,1,3.378-.787l.473-.9a3.4,3.4,0,0,0,1.006.473,4.14,4.14,0,0,0,1.2.178q1.491,0,1.491-.852a.552.552,0,0,0-.2-.45,1.274,1.274,0,0,0-.5-.243q-.3-.077-.858-.172a8.409,8.409,0,0,1-1.237-.272,1.906,1.906,0,0,1-.823-.521,1.449,1.449,0,0,1-.343-1.03,1.608,1.608,0,0,1,.71-1.367,3.181,3.181,0,0,1,1.906-.515A5.25,5.25,0,0,1,7.449-6.3a3.374,3.374,0,0,1,1.03.414l-.485.9a3.263,3.263,0,0,0-1.811-.5,2.093,2.093,0,0,0-1.1.237.714.714,0,0,0-.379.627.6.6,0,0,0,.213.485,1.347,1.347,0,0,0,.527.26q.314.083.882.189a9.57,9.57,0,0,1,1.225.278,1.829,1.829,0,0,1,.8.5,1.4,1.4,0,0,1,.331.994A1.568,1.568,0,0,1,7.953-.556,3.438,3.438,0,0,1,5.97-.053Zm6.817,0a3.4,3.4,0,0,1-1.681-.414A3,3,0,0,1,9.941-1.61a3.242,3.242,0,0,1-.42-1.651,3.242,3.242,0,0,1,.42-1.651,2.963,2.963,0,0,1,1.166-1.136,3.441,3.441,0,0,1,1.681-.408,3.407,3.407,0,0,1,1.675.408,2.973,2.973,0,0,1,1.16,1.136,3.242,3.242,0,0,1,.42,1.651,3.242,3.242,0,0,1-.42,1.651,3.015,3.015,0,0,1-1.16,1.142A3.368,3.368,0,0,1,12.787-.053Zm0-.994a2.118,2.118,0,0,0,1.083-.278,1.963,1.963,0,0,0,.752-.781,2.386,2.386,0,0,0,.272-1.154,2.386,2.386,0,0,0-.272-1.154,1.923,1.923,0,0,0-.752-.775,2.154,2.154,0,0,0-1.083-.272A2.154,2.154,0,0,0,11.7-5.19a1.963,1.963,0,0,0-.757.775,2.345,2.345,0,0,0-.278,1.154,2.345,2.345,0,0,0,.278,1.154,2,2,0,0,0,.757.781A2.118,2.118,0,0,0,12.787-1.047Zm8.155-5.409a3.3,3.3,0,0,1,1.633.4,2.894,2.894,0,0,1,1.13,1.124,3.332,3.332,0,0,1,.408,1.669,3.365,3.365,0,0,1-.408,1.675,2.883,2.883,0,0,1-1.13,1.13,3.3,3.3,0,0,1-1.633.4,2.971,2.971,0,0,1-1.278-.272,2.46,2.46,0,0,1-.959-.793v.994H17.616V-8.906h1.136V-5.45A2.413,2.413,0,0,1,19.7-6.2,3.005,3.005,0,0,1,20.942-6.456Zm-.095,5.409a2.118,2.118,0,0,0,1.083-.278,2,2,0,0,0,.757-.781,2.345,2.345,0,0,0,.278-1.154,2.345,2.345,0,0,0-.278-1.154,1.963,1.963,0,0,0-.757-.775,2.154,2.154,0,0,0-1.083-.272,2.163,2.163,0,0,0-1.077.272,1.912,1.912,0,0,0-.757.775,2.386,2.386,0,0,0-.272,1.154,2.386,2.386,0,0,0,.272,1.154,1.951,1.951,0,0,0,.757.781A2.127,2.127,0,0,0,20.848-1.047ZM36.719-6.456A2.547,2.547,0,0,1,38.6-5.77a2.748,2.748,0,0,1,.692,2.036v3.61H38.152V-3.6a1.979,1.979,0,0,0-.42-1.373,1.542,1.542,0,0,0-1.2-.462,1.8,1.8,0,0,0-1.373.539,2.164,2.164,0,0,0-.509,1.545V-.124H33.512V-3.6a1.979,1.979,0,0,0-.42-1.373,1.542,1.542,0,0,0-1.2-.462,1.8,1.8,0,0,0-1.373.539,2.164,2.164,0,0,0-.509,1.545V-.124H28.872V-6.4h1.089v.935a2.2,2.2,0,0,1,.9-.74,3.012,3.012,0,0,1,1.266-.254,2.777,2.777,0,0,1,1.3.3A2.056,2.056,0,0,1,34.3-5.3a2.4,2.4,0,0,1,.988-.852A3.221,3.221,0,0,1,36.719-6.456Zm7.528,5.409A2.327,2.327,0,0,0,46.058-1.8l.615.734a2.649,2.649,0,0,1-1.047.757,3.687,3.687,0,0,1-1.414.26,3.7,3.7,0,0,1-1.764-.408A2.912,2.912,0,0,1,41.258-1.6a3.275,3.275,0,0,1-.42-1.657,3.325,3.325,0,0,1,.408-1.645,2.925,2.925,0,0,1,1.124-1.142,3.2,3.2,0,0,1,1.616-.408,3.16,3.16,0,0,1,1.55.385A2.9,2.9,0,0,1,46.65-4.989a3.178,3.178,0,0,1,.426,1.61l-4.983.971a1.935,1.935,0,0,0,.8,1.006A2.486,2.486,0,0,0,44.247-1.047Zm-.26-4.45a2.066,2.066,0,0,0-1.059.272,1.886,1.886,0,0,0-.728.763,2.4,2.4,0,0,0-.26,1.142V-3.2l4.012-.757a1.919,1.919,0,0,0-.686-1.113A1.983,1.983,0,0,0,43.987-5.5ZM54.58-8.906V-.124H53.491v-.994a2.461,2.461,0,0,1-.959.793,2.971,2.971,0,0,1-1.278.272,3.3,3.3,0,0,1-1.633-.4,2.884,2.884,0,0,1-1.13-1.13,3.365,3.365,0,0,1-.408-1.675A3.332,3.332,0,0,1,48.49-4.93a2.894,2.894,0,0,1,1.13-1.124,3.3,3.3,0,0,1,1.633-.4A3.005,3.005,0,0,1,52.5-6.2a2.413,2.413,0,0,1,.947.752V-8.906ZM51.348-1.047a2.127,2.127,0,0,0,1.077-.278,1.951,1.951,0,0,0,.757-.781,2.386,2.386,0,0,0,.272-1.154,2.386,2.386,0,0,0-.272-1.154,1.912,1.912,0,0,0-.757-.775,2.163,2.163,0,0,0-1.077-.272,2.154,2.154,0,0,0-1.083.272,1.963,1.963,0,0,0-.757.775,2.345,2.345,0,0,0-.278,1.154,2.345,2.345,0,0,0,.278,1.154,2,2,0,0,0,.757.781A2.118,2.118,0,0,0,51.348-1.047ZM56.734-6.4H57.87V-.124H56.734ZM57.3-7.6a.757.757,0,0,1-.55-.213.7.7,0,0,1-.219-.521.718.718,0,0,1,.219-.527.746.746,0,0,1,.55-.219.769.769,0,0,1,.55.207.68.68,0,0,1,.219.515.732.732,0,0,1-.219.539A.746.746,0,0,1,57.3-7.6Zm8.652-1.3V-.124H64.865v-.994a2.46,2.46,0,0,1-.959.793,2.971,2.971,0,0,1-1.278.272,3.3,3.3,0,0,1-1.633-.4,2.884,2.884,0,0,1-1.13-1.13,3.365,3.365,0,0,1-.408-1.675,3.332,3.332,0,0,1,.408-1.669,2.9,2.9,0,0,1,1.13-1.124,3.3,3.3,0,0,1,1.633-.4,3.005,3.005,0,0,1,1.243.254,2.413,2.413,0,0,1,.947.752V-8.906ZM62.723-1.047A2.127,2.127,0,0,0,63.8-1.326a1.951,1.951,0,0,0,.758-.781,2.386,2.386,0,0,0,.272-1.154,2.386,2.386,0,0,0-.272-1.154A1.912,1.912,0,0,0,63.8-5.19a2.163,2.163,0,0,0-1.077-.272,2.154,2.154,0,0,0-1.083.272,1.963,1.963,0,0,0-.757.775A2.345,2.345,0,0,0,60.6-3.261a2.345,2.345,0,0,0,.278,1.154,2,2,0,0,0,.757.781A2.118,2.118,0,0,0,62.723-1.047Zm11.3-5.35V-.124H72.937v-.994a2.46,2.46,0,0,1-.959.793A2.971,2.971,0,0,1,70.7-.053a3.3,3.3,0,0,1-1.633-.4,2.884,2.884,0,0,1-1.13-1.13,3.365,3.365,0,0,1-.408-1.675,3.331,3.331,0,0,1,.408-1.669,2.894,2.894,0,0,1,1.13-1.124,3.3,3.3,0,0,1,1.633-.4,3.005,3.005,0,0,1,1.243.254,2.413,2.413,0,0,1,.947.752V-6.4Zm-3.231,5.35a2.127,2.127,0,0,0,1.077-.278,1.951,1.951,0,0,0,.758-.781A2.386,2.386,0,0,0,72.9-3.261a2.386,2.386,0,0,0-.272-1.154,1.912,1.912,0,0,0-.758-.775,2.163,2.163,0,0,0-1.077-.272,2.154,2.154,0,0,0-1.083.272,1.963,1.963,0,0,0-.758.775,2.345,2.345,0,0,0-.278,1.154,2.345,2.345,0,0,0,.278,1.154,2,2,0,0,0,.758.781A2.118,2.118,0,0,0,70.795-1.047Z" transform="translate(76.895 53.473)" fill="#fff"/>
  </g>
</svg>
